<svg xmlns="http://www.w3.org/2000/svg" viewBox="0 0 138.82 30.71"><defs><style>.cls-1{fill:#1a1a1a;}.cls-2{fill:#fff;}</style></defs><title>Asset 1</title><g id="Layer_2" data-name="Layer 2"><g id="Layer_2-2" data-name="Layer 2"><rect class="cls-1" x="98.82" y="5.71" width="40" height="25"/></g><g id="Layer_1-2" data-name="Layer 1"><path class="cls-1" d="M11.11,10.33l-.44,3.33h-.11l-1.65,2-.19.22-.19-.22a1.36,1.36,0,0,0-.17-.18,5.48,5.48,0,0,0-2.83.75,4,4,0,0,0-.39,1.52v6.5L3.25,26.52l-1.73-.27h-1v-5L0,12.84l1.88-2.25H5.14v1.05A8.33,8.33,0,0,1,10,10.25a6.86,6.86,0,0,1,.9.05ZM1.56,12.92c-.05,0-.08,0-.08-.08a2.61,2.61,0,0,0-.21-.76l-.71.84Zm-.15-1a.08.08,0,0,1,.07.07c.12.33.24.34.38,0,0-.1.1-.25.17-.47a4.53,4.53,0,0,1,.16-.47h-.1Zm1,.86a11,11,0,0,1-.11-1.14,3.9,3.9,0,0,0-.55,1.21.13.13,0,0,1-.11.08H3.38V13c.37-1.31.35-1.74,0-1.29a2.63,2.63,0,0,0-.38.58,3.91,3.91,0,0,1-.37.59.1.1,0,0,1-.13,0A.12.12,0,0,1,2.38,12.77Zm.07-1.69c0,.57.07.87.07.89.06.31.18.26.37-.16l.7-.73Zm2.24,2.05a.11.11,0,0,1-.14,0,.17.17,0,0,1,0-.13c.07-.45-.07-.5-.42-.14a9.34,9.34,0,0,1-.66.82h0v.53a7.88,7.88,0,0,1,4.78-1.62.24.24,0,0,1-.05-.14,3.77,3.77,0,0,1,0-.39A2,2,0,0,0,8,11.66c0-.25-.18-.2-.37.15a3.49,3.49,0,0,1-.55.77c-.08.09-.15.08-.2-.05-.21-.53-.36-.76-.44-.69l-.16.29a2.12,2.12,0,0,1-.25.43.11.11,0,0,1-.12,0,1.38,1.38,0,0,1-.36-.19c-.17-.09-.26-.13-.27-.11A2.32,2.32,0,0,1,4.69,13.13ZM3.42,19.41a4.12,4.12,0,0,0,0,.42v.53c.79-.36.91-.6.35-.72C3.56,19.6,3.45,19.52,3.42,19.41Zm0,2.07A2.4,2.4,0,0,1,4,21.2c.64-.17.44-.36-.6-.56Zm0,1.18c.69-.45,1-.68.89-.69-.49-.08-.79-.14-.89-.17Zm.53.75c.22-.09,0-.23-.53-.43v.66A3,3,0,0,1,3.91,23.41Zm-.53,1.32a8.09,8.09,0,0,1,.85-.56c-.16.08-.45,0-.85-.15Zm0,.88.32-.39-.17-.06a.37.37,0,0,0-.15-.08Zm.35-7.23a5.13,5.13,0,0,0-.25.79,1.07,1.07,0,0,1,.4-.26l.29-.11a2.49,2.49,0,0,0,.3-.1C4.36,18.75,4.12,18.64,3.73,18.38Zm.93-7.3H3.88a9.84,9.84,0,0,1-.3,2.05c0-.2.39-.55,1-1.06l0,0ZM4,23.64c-.34.13-.36.23,0,.31l.4.07.27,0,0,0v-.72C4.57,23.4,4.34,23.5,4,23.64Zm.45.72c-.65.27-.84.49-.56.67Zm-.23-6.78s0,0,0,0a4.53,4.53,0,0,0-.33.53Q4.34,18.06,4.19,17.58Zm.15,2.7c-.37.14-.51.24-.4.3l.29.11.43.17v-.75A1,1,0,0,1,4.34,20.28ZM4,21.67a1.79,1.79,0,0,1,.68.22v-.67C4.08,21.5,3.86,21.65,4,21.67Zm.68.72c-.59.3-.81.46-.66.47a1.44,1.44,0,0,1,.66.25Zm0-4.33c-.25.1-.37.18-.35.25a1.09,1.09,0,0,0,.35.28Zm0-.42a4.42,4.42,0,0,1,.15-.83,6.37,6.37,0,0,0-.5.55A3.6,3.6,0,0,1,4.66,17.64Zm0,1.25c-.23.11-.35.22-.35.36s.13.22.35.3Zm.42-6.61q-.13.09,0,0l-.22.16C4.85,12.63,4.93,12.56,5.08,12.28ZM5.53,12q.43.39.78-.45A8.43,8.43,0,0,0,5.53,12Zm1.06-.58a4,4,0,0,1,.41.7c0,.08.32-.29.86-1.11A9.88,9.88,0,0,0,6.59,11.39ZM10,10.73a8.92,8.92,0,0,0-1.9.21h0s.07.26.16.71.17.71.19.86C8.69,12.7,9.2,12.11,10,10.73ZM8.09,11s0,0,0,0Zm1.18,2.13c.05-.13.13-.29.23-.5s.19-.41.23-.52c.34-.78.43-1.05.27-.83,0,.07-.12.2-.23.41L9.53,12a1.49,1.49,0,0,1-.69.55,3,3,0,0,1,.49.05Zm-.22,1.64c.59-.71,1-1.15,1.11-1.31a8.56,8.56,0,0,1-.88.12H9.22Zm1.51-4-.31,0a2.53,2.53,0,0,1-.12,1c-.25.6-.38.87-.36.83-.13.47,0,.67.43.6h.05Z"/><path class="cls-1" d="M28,17.7a6.48,6.48,0,0,1-3,5.91,6.46,6.46,0,0,1-5.76,2.91,7.06,7.06,0,0,1-4.3-1.41,6.39,6.39,0,0,1-2.51-5.5,6.38,6.38,0,0,1,2.06-5,6.09,6.09,0,0,1,3-3.11,7.55,7.55,0,0,1,3.42-.82,7.46,7.46,0,0,1,4.49,1.43A6.54,6.54,0,0,1,28,17.7Zm-11.95-.82a4,4,0,0,0-.89,2.73c0,.1,0,.27,0,.5a.19.19,0,0,1,0-.09l.8-.57c.51-.41.61-.66.3-.73-.52-.11-.83-.17-.91-.2s-.15-.14,0-.22l.25-.13.41-.23c.34-.22.47-.38.39-.49Zm-.22,5.23a6.72,6.72,0,0,0,1.56,1.27,4.77,4.77,0,0,0,1.83.39,5.13,5.13,0,0,0,1.19-.18,2.35,2.35,0,0,1,0-1.07,2,2,0,0,1-.57.78,1.45,1.45,0,0,1-1.06.36c-.09,0-.13-.05-.11-.14s0-.32.06-.63a4,4,0,0,1,.11-.62c.07-.22.06-.33,0-.33l-.19.06-.33.09a19.9,19.9,0,0,1-2,.33c-.11,0-.14-.07-.09-.17a6.81,6.81,0,0,1,.42-.72c.21-.31.35-.55.44-.7.15-.31.15-.48,0-.5a.92.92,0,0,0-.28,0l-.3.05a3.33,3.33,0,0,1-1.25-.17.09.09,0,0,1,0-.06A4.06,4.06,0,0,0,15.83,22.11Zm.59-9.41a5.52,5.52,0,0,0-1.06,1.21,7,7,0,0,1,1.81-.8,5.8,5.8,0,0,0-.73-.39Zm.22,5.1a.67.67,0,0,1-.14.15c-.39.32-.67.45-.86.41.64.14,1,.21,1,.23l.09.07A4.91,4.91,0,0,1,16.64,17.8Zm.14,1.47a2.6,2.6,0,0,1-.53.36c-.3.17-.48.28-.53.32s.08.1.47.14a3.65,3.65,0,0,0,.64,0h.39a4.13,4.13,0,0,1-.39-.93Zm-.14-2a5.88,5.88,0,0,1,.17-1.06,2.87,2.87,0,0,0-.61.48l0,0C16.58,17.23,16.72,17.42,16.64,17.28Zm2.45,4.39a3.79,3.79,0,0,1-1.64-1.2c-.42,1.14-.72,1.73-.87,1.75A23.17,23.17,0,0,0,19.09,21.67ZM17,12.7a.65.65,0,0,1,.15.11.69.69,0,0,0,.17.13.26.26,0,0,0,.36-.1,11.65,11.65,0,0,0,.86-1.36,7,7,0,0,0-1.93,1A1.91,1.91,0,0,1,17,12.7Zm2.18,2.86a4.76,4.76,0,0,0-1.79.35,4.37,4.37,0,0,0-.33,1.75A3.57,3.57,0,0,0,18.77,21a4.19,4.19,0,0,0,2.15.58A4.33,4.33,0,0,0,23.17,21a4.75,4.75,0,0,0,.16-1.29,3.72,3.72,0,0,0-1.81-3.5A4.48,4.48,0,0,0,19.2,15.56Zm-1-3a1.88,1.88,0,0,1-.25.4,7,7,0,0,1,1.25-.12h.27l0,0h0a6.31,6.31,0,0,1-.51-.68,1,1,0,0,1-.09-.25c-.05-.12-.08-.21-.1-.26C18.52,12,18.33,12.29,18.2,12.52Zm1.05,9.31a14.37,14.37,0,0,0-.34,1.47A1,1,0,0,0,20,22.73a3.06,3.06,0,0,1,.33-.65.09.09,0,0,1,.12,0,.12.12,0,0,1,.1.11c.07.78.1,1.11.08,1,.06.3.19.2.4-.3a8.66,8.66,0,0,1,.39-.83l-.53,0a4.72,4.72,0,0,1-1.65-.3A.12.12,0,0,1,19.25,21.83Zm.39-10a1.24,1.24,0,0,1,.38-.64,6.73,6.73,0,0,0-1.1.24,1,1,0,0,1,.16.34,2,2,0,0,0,.51.83,3.66,3.66,0,0,0,0-.41A1.37,1.37,0,0,1,19.64,11.78Zm.09,1.05.69.09c0,.08,0,0,0-.25a3,3,0,0,1-.13-.65,3.34,3.34,0,0,0-.14-.64,3,3,0,0,0-.31,1.15A.73.73,0,0,1,19.73,12.83Zm2.35-1.64a6.5,6.5,0,0,0-1.19-.11l-.62,0a2.7,2.7,0,0,1,.18.69,5,5,0,0,0,.1.68c.08.33.22.4.4.21a4.58,4.58,0,0,0,.78-.88A3.16,3.16,0,0,1,22.08,11.19Zm.15.89q0-.62,0-.72c-.05.07-.17.27-.35.59a3.59,3.59,0,0,1-.44.58l-.53.49a8.44,8.44,0,0,1,1.37.45v0C22.25,12.73,22.23,12.28,22.23,12.08ZM21.25,23a3.46,3.46,0,0,1-.23.44,3.26,3.26,0,0,0,.93-.53s0,0,0,0c-.25-.41-.36-.66-.32-.73-.05.1-.11.24-.19.42Zm.89-.25a3.39,3.39,0,0,0,.8-1.09,5.91,5.91,0,0,1-1.13.33A6,6,0,0,0,22.14,22.7Zm.36-9.36a18.07,18.07,0,0,1,1.69-1.45,7.22,7.22,0,0,0-1.74-.62s0,.29,0,.81Q22.47,12.55,22.5,13.34Zm1.55.08a4.52,4.52,0,0,0,.15-1.25,11.66,11.66,0,0,1-1.68,1.42l.37.19a4.05,4.05,0,0,1,1.05.66A7.47,7.47,0,0,1,24.05,13.42Zm1.51,1.75a1.33,1.33,0,0,0,.3-1.45l-.84.36c-.37.15-.65.28-.85.37,0,.14,0,.16,0,.08a.11.11,0,0,1,0,.08,2.92,2.92,0,0,1,.43.53,6.34,6.34,0,0,1,.58.81Zm.5-1.84A6,6,0,0,0,24.41,12a2.47,2.47,0,0,1-.05,1,11.08,11.08,0,0,0-.17,1.16C25.38,13.66,26,13.37,26.06,13.33ZM26.28,16a3.81,3.81,0,0,1-1,.19A6.45,6.45,0,0,1,26,18.31s0,0,0,0c.55-.35.91-.57,1.06-.64a2.25,2.25,0,0,0-1.17-.28.11.11,0,0,1-.11-.06.11.11,0,0,1,0-.13,5.63,5.63,0,0,0,.85-.83C27,16,26.86,15.83,26.28,16Zm-.76,6.64a6.73,6.73,0,0,0,.71-.78c-.23-.45-.29-.72-.2-.83a1.28,1.28,0,0,1,.56-.37c.19-.07,0-.38-.51-1A7.74,7.74,0,0,1,25.52,22.64Zm1.75-7a6.14,6.14,0,0,0-1-2,4.16,4.16,0,0,1-.53,1.67c-.22.42-.1.61.34.58a4.9,4.9,0,0,0,.61-.13l.55-.14Zm-1.19,4s0,0,0,0a2.56,2.56,0,0,1,.64-.3l.41-.17c.11-.09-.26-.27-1.11-.57H26A7.34,7.34,0,0,1,26.08,19.55Zm.83,1.23a2.29,2.29,0,0,0-.49.27.58.58,0,0,0,0,.61A6.19,6.19,0,0,0,26.91,20.78Zm.61-3.42a8.56,8.56,0,0,0-.18-1.48,2.38,2.38,0,0,1-.71.92c-.28.23-.27.38,0,.45l.42.06Zm0,.28q-1.46.63-.87.81a5.07,5.07,0,0,1,.79.41,7,7,0,0,0,.1-1.16Zm-.14,1.64c-.75.15-1,.39-.62.72a1.6,1.6,0,0,1,.31.36A7,7,0,0,0,27.39,19.28Z"/><path class="cls-1" d="M45,0V23.73l-1.79,2.13-1.46-.11H40.39V25.2a7.18,7.18,0,0,1-4.08,1.32h0a6.75,6.75,0,0,1-5-2,6.36,6.36,0,0,1-1.79-4.79,6.62,6.62,0,0,1,1.91-4.89,6.16,6.16,0,0,1,3-3.36,7.37,7.37,0,0,1,3.53-.89,7.77,7.77,0,0,1,2.45.43V3.59l-.25-1.45L41.92,0ZM33.27,12.81a6.32,6.32,0,0,0-1,1.3,7.15,7.15,0,0,1,4.05-1.23h.08a2.31,2.31,0,0,1-.28-1.18,3,3,0,0,1-.63,1c-.1.1-.16.09-.18-.05a5.8,5.8,0,0,0,0-.62c0-.18-.09-.13-.23.14a2.25,2.25,0,0,1-.52.69.11.11,0,0,1-.14,0,1,1,0,0,1-.28-.52,1.13,1.13,0,0,1-.25.89c-.06.09-.12.09-.17,0Zm-1,6.89v.22l.05,0a3.67,3.67,0,0,1,.94-.2c.41-.05.41-.09,0-.11l-.56,0-.37,0h0l0,.08Zm0,.33a4.56,4.56,0,0,0,.38,1.67,5,5,0,0,0,.47.53,5.39,5.39,0,0,0,1,.8.09.09,0,0,1,0-.11c.06-.07.32-.51.78-1.33a4,4,0,0,1-1.86.52c-.15,0-.18-.07-.11-.17a4.46,4.46,0,0,1,1.19-1.13l-.41.07a4.47,4.47,0,0,1-1.15.15c-.07,0-.1,0-.11-.08a.11.11,0,0,1,0-.12,7.27,7.27,0,0,1,1.05-.6,2.68,2.68,0,0,1-1.22-.14A.16.16,0,0,1,32.23,20Zm.82-1.31a4.51,4.51,0,0,1-.71-.08,4.48,4.48,0,0,0-.07.64C33,18.91,33.22,18.72,33.05,18.72Zm-.39-1a3.4,3.4,0,0,0-.25.67c.87-.3,1-.53.26-.67Zm1.28,1.7a4.1,4.1,0,0,1-.16-.53,3.52,3.52,0,0,1-1.09.48C33.42,19.38,33.83,19.39,33.94,19.39Zm-.67-2.56a3.1,3.1,0,0,0-.49.62C33.5,17.31,33.66,17.1,33.27,16.83Zm.4,1.25a5.05,5.05,0,0,1-.72.34l-.15.06h.25l.67.08C33.7,18.4,33.68,18.23,33.67,18.08Zm-.45,1.84c-.34,0-.35,0,0,.06s.5,0,.6,0l.43,0c-.06-.12-.12-.22-.17-.33A1.54,1.54,0,0,1,33.22,19.92Zm1.14.3q-.47.15-1,.39c-.39.18-.42.22-.07.14a13.5,13.5,0,0,1,1.34-.23Zm-.7-2.61v-.09a.46.46,0,0,0,0-.1l-.5.21a.77.77,0,0,1,.49,0Zm0-.69a4.18,4.18,0,0,1,.1-.54,2.07,2.07,0,0,0-.38.28A1.69,1.69,0,0,1,33.7,16.92ZM34,12.25a4.16,4.16,0,0,0-.51.41C33.65,12.84,33.82,12.71,34,12.25Zm.86,8.47a5.48,5.48,0,0,0-1.08.81c-.45.42-.28.44.52.06.07,0,.37-.16.89-.37l0,0,.19-.06A3.2,3.2,0,0,1,34.81,20.72Zm1.46-5.11a4.73,4.73,0,0,0-1.89.42,5,5,0,0,0-.27,1.58A3.62,3.62,0,0,0,35,20.3a4.09,4.09,0,0,0,2.91,1.14,4.48,4.48,0,0,0,2.33-.72,6.5,6.5,0,0,0,.12-1.06,3.58,3.58,0,0,0-1.8-3.43A4.83,4.83,0,0,0,36.27,15.61Zm-1.1,8a4.9,4.9,0,0,0,1.11.18,4.8,4.8,0,0,0,1.94-.49c-.07,0-.11-.05-.09-.11a2.77,2.77,0,0,0-.07-.75c-.08-.22-.21-.12-.37.28a2.56,2.56,0,0,1-.42.69.11.11,0,0,1-.13,0,.11.11,0,0,1-.06-.11c0-.62,0-.9,0-.83,0-.23-.16-.17-.39.21a2.56,2.56,0,0,1-.31.45,1.13,1.13,0,0,1-.7.45c-.12,0-.16,0-.11-.14.33-.91.6-1.42.79-1.51-.11,0-.46.27-1,.65a4,4,0,0,1-1.08.52h0A4.87,4.87,0,0,0,35.17,23.59ZM35,11.67c-.25.12-.49.25-.73.39C34.41,12.66,34.65,12.53,35,11.67Zm.58,9.63a6.24,6.24,0,0,0-.86,1q-.63.86.3.06a2.94,2.94,0,0,1,.67-.41,4,4,0,0,0,.69-.37,4.59,4.59,0,0,1-.78-.34S35.55,21.3,35.56,21.3Zm.44-10a8.18,8.18,0,0,0-.77.28c.14.32.26.45.36.41s.24-.26.39-.66Zm.61,10.41a4.92,4.92,0,0,0-.22.5,4.8,4.8,0,0,1-.22.45c-.25.36-.19.39.19.11.38-.62.59-.95.62-1ZM36.2,11.31l.36,1c.19.36.36.27.5-.27a5.35,5.35,0,0,1,.42-1,7.18,7.18,0,0,0-1.32.23A.09.09,0,0,1,36.2,11.31Zm1.21.39A7.6,7.6,0,0,1,37,12.92a6.86,6.86,0,0,1,1.08.21l0-.05a5.26,5.26,0,0,1-.11-.52,7.07,7.07,0,0,0-.14-.72C37.66,11.3,37.53,11.26,37.41,11.7Zm.53,10.21c-.2,0-.43,0-.69-.08a5.52,5.52,0,0,1,.08.87s.15-.18.4-.61A.52.52,0,0,1,37.94,21.91Zm1.14-10.78A5.76,5.76,0,0,0,37.94,11h-.11a7.07,7.07,0,0,0,.3,1.08c.16.37.32.34.46-.11a2.54,2.54,0,0,1,.47-.84ZM39,13.42l.37.11c-.16-1-.23-1.42-.22-1.39-.11-.5-.23-.54-.34-.11a2.3,2.3,0,0,1-.61,1.1l0,0C38.45,13.23,38.73,13.32,39,13.42Zm-.64,8.47a2.11,2.11,0,0,1-.05.86,10.59,10.59,0,0,1,.51-1l-.48.08Zm.93.63c-.18-.45-.35-.54-.53-.27a4.65,4.65,0,0,0-.22.47c-.1.26-.18.43-.22.51A3.85,3.85,0,0,0,39.31,22.52Zm.17-.19a3.28,3.28,0,0,0,.6-1,5.48,5.48,0,0,1-.92.36A3.09,3.09,0,0,1,39.48,22.33Zm.91-10.86a9.15,9.15,0,0,0-1.14-.31h0a8.46,8.46,0,0,1,.31,1.88c0,.14.26-.06.81-.61Zm0,1.44c-.23.29-.44.54-.62.75a3.22,3.22,0,0,1,.62.28Zm.24-10.64v.06h2.49V4.94a6.9,6.9,0,0,0,.62-1.61c.22-.79.08-1.05-.41-.78-.11.06-.17,0-.17-.1A13.1,13.1,0,0,1,43.31,1a2.92,2.92,0,0,1-.56,1.15.11.11,0,0,1-.14,0s-.07,0-.08-.11a7.8,7.8,0,0,1,.06-.93c0-.25,0-.17-.15.25a1.86,1.86,0,0,1-.52.75.14.14,0,0,1-.12,0,.11.11,0,0,1-.07-.11A7.54,7.54,0,0,1,41.86.8ZM42.14.45l0,0a.39.39,0,0,1,0,.06c-.07.46,0,.62.07.47a1.43,1.43,0,0,0,.27-.58Zm.56,0v0c0,.64.08.93.14.84L43,1a3.73,3.73,0,0,1,.34-.53ZM44.11,5a1.2,1.2,0,0,1-.89.19.11.11,0,0,1-.09,0V6.42A4,4,0,0,1,44.11,5Zm-1,3.41A12.61,12.61,0,0,0,44,7c.15-.39-.1-.53-.73-.4a.12.12,0,0,1-.12,0Zm.92.64a7.45,7.45,0,0,1-.92.14V11h0C43.77,9.65,44.07,9,44.05,9ZM43.13,13a11.89,11.89,0,0,1,1-1.84,5.24,5.24,0,0,1-.9,0,.11.11,0,0,1-.1-.08Zm0,2.14.06,0a.11.11,0,0,1,0-.08,4.28,4.28,0,0,1,.42-.64,3.57,3.57,0,0,0,.3-.47q.15-.36-.78-.42Zm0,2.35a3,3,0,0,1,.45-.36l.3-.2c.09-.09-.11-.13-.6-.13-.15,0-.19-.07-.11-.17l.75-1c.17-.33-.06-.44-.67-.32a.11.11,0,0,1-.12,0Zm0,4.59c.07-.11.19-.28.37-.51a2.11,2.11,0,0,0,.31-.46c.16-.29,0-.43-.48-.43-.12,0-.15-.07-.1-.18a1.49,1.49,0,0,1,.52-.68c.27-.19.33-.27.19-.25l-.3,0-.36.05a.1.1,0,0,1-.11-.08.11.11,0,0,1,0-.12,4.91,4.91,0,0,0,.44-.71,2.58,2.58,0,0,1,.45-.67c.22-.21.15-.32-.2-.33a2.32,2.32,0,0,0-.44,0h-.31Zm1.42,1.55V22.25c0,.08-.1.2-.17.34-.34,0-.37-.12-.1-.43-.1.12-.48.18-1.12.18h0v1.45c.47-.33.82-.59,1-.76a1.47,1.47,0,0,1-.25.37c-.26.27-.32.41-.17.41a3.72,3.72,0,0,1,.66-.16.06.06,0,0,1,.07,0Zm-.27.31a4.31,4.31,0,0,1-1.11.11l0,0v1.29ZM44.55.45h-.94v0L43.5,1a6.44,6.44,0,0,0-.09.68c0,.51.13.55.53.14a3.38,3.38,0,0,1,.51-.36.09.09,0,0,1,.1,0Zm0,12.89A13.26,13.26,0,0,0,43.44,15c.44-.08.79-.14,1.06-.17h0Zm0-6.82A10.79,10.79,0,0,0,43.63,8c-.22.61.08.81.92.63h0Zm0,10.09c-.85.64-1.15.94-.91.92a2.32,2.32,0,0,1,.91,0Zm0-5.69c-1.25,1.68-1.28,2.41-.08,2.21a.06.06,0,0,1,.08,0Zm0-9.2a18.21,18.21,0,0,0-.86,2.08c-.23.86,0,1.16.79.9h.07Zm0,18.87a2.75,2.75,0,0,0-.88,1c-.12.34.17.43.88.26Zm0-2.65a8.84,8.84,0,0,0-.82,1c-.13.31.12.43.77.36l0,0Zm0-8.92a10.31,10.31,0,0,0-.75,1.25c-.18.44,0,.59.67.43a.09.09,0,0,1,.08,0Zm0-4.1a1.67,1.67,0,0,0-.75.89c-.08.32.17.44.75.38Zm0,10.22a4.91,4.91,0,0,1-.35.5,3.91,3.91,0,0,0-.31.44c-.15.27.06.38.61.34l0,0Zm0,4.36a1.54,1.54,0,0,0-.61.59c-.1.21.1.31.58.29h0Zm-.17,3.09c.22,0,.16.14-.21.43Z"/><path class="cls-1" d="M59.23,20.33l2.82,1.8-.13.2a6.14,6.14,0,0,1-3.47,2.47,7,7,0,0,1-4.81,1.72,7.09,7.09,0,0,1-5.23-2.11,6.7,6.7,0,0,1-1.85-5,6.47,6.47,0,0,1,3.63-6.24A7.06,7.06,0,0,1,56,10.56H56a8.36,8.36,0,0,1,4.37,1.35,5.74,5.74,0,0,1,2.81,4.75l.11,1.65L61,20l-1.67-.28h-7A3.62,3.62,0,0,0,56,21.89a3.46,3.46,0,0,0,3.14-1.36Zm-7.18,0a3.53,3.53,0,0,1-.25-.56H49.42c0,.22,0,.43.06.64a5.83,5.83,0,0,0,1.43,2.34,3.22,3.22,0,0,0,.32.32,4.9,4.9,0,0,0,2.41.64,4.83,4.83,0,0,0,1.06-.14q-.3-.9-.18-1.05a4.37,4.37,0,0,0-.63,1.08.12.12,0,0,1-.22,0,3.56,3.56,0,0,1,0-.58q0-.46,0-.66c-.06-.47-.23-.45-.5.05a4.69,4.69,0,0,1-.69,1.06.15.15,0,0,1-.14,0,.13.13,0,0,1-.06-.14,6.53,6.53,0,0,1,.16-.64c.09-.31.15-.52.17-.64q-.42-.6-.6.12l-.06.13a.64.64,0,0,1-.06.14,1,1,0,0,1-.58.5c-.12,0-.17,0-.14-.14a4,4,0,0,1,.36-1.19,3.15,3.15,0,0,1,.17-.31l.2-.33c.11-.25,0-.3-.29-.16-.1,0-.32.2-.67.44a2.21,2.21,0,0,1-.72.33c-.13,0-.18,0-.14-.16a2.13,2.13,0,0,1,.53-1.14,2.11,2.11,0,0,1-.83.34c-.07,0-.12,0-.14-.11s0-.11.08-.12a3.55,3.55,0,0,0,1-.45.1.1,0,0,1,.14,0,.14.14,0,0,1,0,.14c-.37.77-.35,1,.05.8A8.47,8.47,0,0,1,52,20.3Zm-.72-3.42a2,2,0,0,1,.15-1.16,3.44,3.44,0,0,0-1.34,1.16ZM52.42,12a8,8,0,0,0-1.08.75,7.61,7.61,0,0,1,2.3-.37H54a2.51,2.51,0,0,1-.3-.53,1.09,1.09,0,0,1-.16.39C53.41,12.36,53,12.28,52.42,12Zm.24,9.14a3.8,3.8,0,0,1-.52-.62,1.36,1.36,0,0,1-.16.62c-.15.29-.29.58-.42.88s-.22.54.07.31A3,3,0,0,1,52.66,21.09Zm-.94-4.9c.1-.41.16-.63.17-.67a2.41,2.41,0,0,0-.25.11.1.1,0,0,1,.08.14,2.49,2.49,0,0,0-.14.76C51.56,16.78,51.6,16.67,51.72,16.19Zm.34-.38c0,.16-.07.3-.11.44a2.15,2.15,0,0,1-.22.61h.93a5.69,5.69,0,0,1-.57-1.13v0A.52.52,0,0,1,52.06,15.81Zm3.41-.25a6.34,6.34,0,0,0-1.86-.37,4.53,4.53,0,0,0-1.39.22c.37,1.14.65,1.37.83.67a2.59,2.59,0,0,1,.31-.78.12.12,0,0,1,.12-.07.09.09,0,0,1,.1.08l.06.47a2.72,2.72,0,0,0,.08.44c.07.25.28,0,.64-.75a.09.09,0,0,1,.11-.06.14.14,0,0,1,.11.09c.14.39.21.56.19.52.15.3.29.34.4.12A3.52,3.52,0,0,0,55.47,15.56Zm-2.11,6.1a2.85,2.85,0,0,1-.5-.38,2.74,2.74,0,0,1-.08.8c-.21.69-.26.93-.17.73A5,5,0,0,1,53.36,21.66Zm.16-10.19a7,7,0,0,0-.82.33C53.14,11.93,53.41,11.82,53.52,11.47Zm-.13,4.09a1.73,1.73,0,0,1-.45,1.3h.86A3.2,3.2,0,0,1,53.39,15.56Zm.38,6.32a2.85,2.85,0,0,1,0,1.25,3.13,3.13,0,0,1,.31-.5,5,5,0,0,0,.3-.5C54.19,22.05,54,22,53.77,21.88ZM54.14,12c.14.39.42.11.86-.84a8.14,8.14,0,0,0-1.17.25A1.62,1.62,0,0,1,54.14,12Zm1.66,4.91a3.78,3.78,0,0,0-.25-.89,4.52,4.52,0,0,1-.61.81c-.09.08-.15.08-.19,0s-.1-.27-.16-.46a2.21,2.21,0,0,0-.14-.45s-.15.32-.45,1Zm-1,6c.07.57.3.4.71-.52a5.53,5.53,0,0,1-.83-.15A3.73,3.73,0,0,1,54.81,22.86Zm0-10.47a.09.09,0,0,1,0,0l.61.12a3,3,0,0,0-.21-.83C55.09,11.65,55,11.87,54.8,12.39ZM56,23q-.26-.48-.42-.3a1.78,1.78,0,0,0-.19.29c-.1.17-.18.3-.23.37A3.55,3.55,0,0,0,56,23ZM56,11l-.64,0a4,4,0,0,1,.22,1,2.33,2.33,0,0,0,.85-1h0L56,11Zm.74,1.81c0,.05-.06.07-.13.07a.09.09,0,0,1-.09-.08l-.16-1.19a8.27,8.27,0,0,1-.67,1,8.44,8.44,0,0,1,1.78.69c-.05-.86-.08-1.29-.09-1.31S57.06,12.2,56.69,12.84ZM56,16.33c0,.38.3.36.75-.08a3.66,3.66,0,0,0-.93-.56A2.08,2.08,0,0,1,56,16.33Zm.43,6-.41,0h-.06c.14.22.22.33.23.34S56.28,22.6,56.38,22.34Zm.46-6a8,8,0,0,1-.65.5h1.09A2.26,2.26,0,0,0,56.84,16.36Zm-.36,6.37a2.32,2.32,0,0,0,.46-.48l-.3.06s0,0,0,0S56.54,22.59,56.48,22.73Zm.1-11.65a.09.09,0,0,1,0,.05c0,.62.11.92.19.89l.61-.82Q57,11.13,56.58,11.08Zm1.08,11.5c0-.06,0-.15,0-.25v-.27a5.72,5.72,0,0,1-.59.17l.62.4A.13.13,0,0,1,57.66,22.58Zm2.48-7.11c-.12,0-.17,0-.14-.16.22-.85.33-1.32.34-1.4,0-.55-.19-.6-.7-.16a3.19,3.19,0,0,1-.76.47c-.13,0-.18,0-.15-.16q.29-2,.15-1.83a7.49,7.49,0,0,1-1.29,1.19,8,8,0,0,1,1.1.77,3.49,3.49,0,0,1,1.11,1l.31.44-.23,0a5.84,5.84,0,0,1,.7,2,4.26,4.26,0,0,1,.76-.52,4.42,4.42,0,0,1,1-.42c.07,0-.4.14-1.41.47a.11.11,0,0,1-.12-.05.12.12,0,0,1,0-.13c.69-1.59,1-2.38,1-2.35A8.09,8.09,0,0,1,60.14,15.47Zm-1.78-3a9.46,9.46,0,0,1,.69-.74,8.08,8.08,0,0,0-1.44-.46q0,1.32,0,1.14Q57.72,13.2,58.36,12.47Zm1.16,11.17a4,4,0,0,1,0-1.08,8.86,8.86,0,0,0,.07-1.09,4.91,4.91,0,0,0-.63,1.62c0,.08,0,.11-.12.11s-.11,0-.11-.11,0-.37.06-.73a3.78,3.78,0,0,0,0-.73,1,1,0,0,1-.19.37,6.9,6.9,0,0,0-.72.66.12.12,0,0,1-.09,0l1.62,1s-.09.13-.2.29a5.76,5.76,0,0,0,1.34-.85s0,0,0,0a7.22,7.22,0,0,1-.13-1.05,5.88,5.88,0,0,1-.67,1.58C59.61,23.8,59.55,23.79,59.52,23.64ZM58.31,22a1,1,0,0,0,.14-.25,3.3,3.3,0,0,1-.57.26c0,.21,0,.33,0,.35A3.39,3.39,0,0,0,58.31,22Zm1.07-1a3.12,3.12,0,0,1-.41.4A2.32,2.32,0,0,1,59,22l.23-.47c.11-.21.2-.36.25-.47Zm-.3-7.62c0,.21.2.17.7-.11.15-.08.33-.2.56-.34l.33-.22a6.37,6.37,0,0,0-1.39-.85C59.29,11.93,59.22,12.43,59.08,13.36Zm.7,7.87a7.19,7.19,0,0,1-.05,1,7.21,7.21,0,0,0,0,1,5,5,0,0,0,.33-.83,4.13,4.13,0,0,1,.28-.84v0Zm2.22-7a5.31,5.31,0,0,0-1.16-1.39c-.54,1.71-.55,2.42,0,2.12Zm-1.42,7.53c0,.11.05.38.08.8a3.56,3.56,0,0,1,.17-.64Zm2.23-3.67v-.19h0a10.23,10.23,0,0,0-1,.52c-.48.28-.79.46-1,.54a.12.12,0,0,1-.17-.06c0-.06,0-.11.05-.16a10.84,10.84,0,0,0,1.71-.95l-.23.17a6.7,6.7,0,0,0-1.59.36l.06,1.17.11,0Zm-2,4.84a4.65,4.65,0,0,0,.57-.65L61,22.05C61,22.15,60.93,22.44,60.81,22.92Zm1.92-6.23a.11.11,0,0,0,0-.05v-.05l-1.25.72a3.29,3.29,0,0,0-.52.41c-.21.2-.12.2.25,0a1.8,1.8,0,0,1,.75-.09,7,7,0,0,0,.78,0l.07,0Zm0-.35a5.63,5.63,0,0,0-.49-1.76c-.6,1.21-.92,1.85-1,1.94s.11.2.58.09a4,4,0,0,0,.51-.16l.35-.11Z"/><path class="cls-1" d="M74,10.55a6.85,6.85,0,0,1,5.81,2.58,7,7,0,0,1,1.48,4.37v6.81L79.48,26.5l-.62-.09H76.45V19.67a4.16,4.16,0,0,0-.62-2.17,3.9,3.9,0,0,0-3.6-1.7,5,5,0,0,0-2,.36A4,4,0,0,0,70,17.53v6.94h-.2l-1.74,2.05-.39-.11H65.06V15.75l-.15-2.55L66.73,11h3.19v.58A7.63,7.63,0,0,1,74,10.55Zm-8.63,2.68,0,.08h2.51v.78a7.41,7.41,0,0,1,4.39-1.26,8.46,8.46,0,0,1,2.44.34l0,0a3.69,3.69,0,0,1,0-.67c0-.36,0-.55,0-.59,0-.36-.2-.35-.57,0a2.2,2.2,0,0,1-1.48.79c-.25,0-.41-.09-.47-.28-.12-.4-.23-.56-.33-.45a1.16,1.16,0,0,0-.15.25,2.24,2.24,0,0,1-.22.34.1.1,0,0,1-.11,0,.85.85,0,0,1-.6-.5c0-.07-.16.17-.36.71a.09.09,0,0,1-.1.08.11.11,0,0,1-.11-.07s0,0,0,0a2.31,2.31,0,0,1-.36-.54,4.05,4.05,0,0,1-1.48,1.28h0a.12.12,0,0,1-.15-.06.14.14,0,0,1,0-.16,2.46,2.46,0,0,0,.7-.9,2.39,2.39,0,0,0,.19-.47l.13-.38a3.16,3.16,0,0,0-.85,1.07.56.56,0,0,1-.31.29q-.56.15-.72-.72a1.42,1.42,0,0,1-.26.86c-.1.13-.16.11-.19,0a5.75,5.75,0,0,1-.14-.94c-.19.65-.36,1-.52,1s-.28-.2-.29-.58Zm.81-1a.14.14,0,0,1,0,.09c0,.3.08.28.2-.06,0-.09.11-.28.22-.58Zm.78-.91a.12.12,0,0,1,0,.08c.08.88.11,1.29.11,1.22,0,.12,0-.31.1-1.3Zm.55,0a3.77,3.77,0,0,1,.11.55c.15,1,.38,1.13.7.45a2.21,2.21,0,0,1,.93-1ZM68.73,25l-.64-.44c-.09-.07-.09-.14,0-.2a1.56,1.56,0,0,1,.61-.22c.57-.08.71-.24.43-.49l-.47-.33-.49-.29c-.1-.09-.1-.15,0-.21a1.86,1.86,0,0,1,.49-.21c.36-.1.43-.28.22-.54a1.68,1.68,0,0,0-.71-.48c-.13-.05-.15-.12,0-.2A2.41,2.41,0,0,1,69,21c.39-.11.41-.29,0-.55a3.06,3.06,0,0,0-.48-.28,1.77,1.77,0,0,1-.31-.16.09.09,0,0,1-.07-.11.12.12,0,0,1,.08-.11,2.05,2.05,0,0,0,.86-.29q.21-.21-.39-.57a1.3,1.3,0,0,1-.42-.62c0-.11,0-.17.08-.19.53-.12.81-.25.86-.37,0,.05-.08-.25-.16-.89v0A3.94,3.94,0,0,0,68,19.63v6.25Zm-.09-3.49a1.76,1.76,0,0,1,.94.47v-.94A2.26,2.26,0,0,1,68.64,21.53Zm.72,2.74a3.32,3.32,0,0,0-.59.18q-.22.15.12.39Zm.22-1.72a6.33,6.33,0,0,1-.86.31c-.07,0,.21.35.86,1Zm0-2.77-.41.1-.42.07.83.57Zm-.16-.73a1.19,1.19,0,0,1,.16.08v-1c-.38.11-.6.22-.66.34S69,18.82,69.42,19.05Zm.06-6.69v-.31a2.89,2.89,0,0,1-.39.76,3.78,3.78,0,0,0,.47-.5Zm.1,5.08a4.57,4.57,0,0,1,.14-1.08,4.16,4.16,0,0,0-.49.36c.07,0,.1,0,.11.08a2.43,2.43,0,0,0,.24.75Zm1.08-5.81A6.61,6.61,0,0,0,70,12a1.61,1.61,0,0,0,.3.54A5.49,5.49,0,0,1,70.66,11.63Zm1.17-.46a6,6,0,0,0-.89.33s0,0,0,0C71.13,12.12,71.43,12,71.83,11.17Zm2.28-.29a8.12,8.12,0,0,0-2,.23l.17.37c0-.05,0,.1.08.46.16.54.52.59,1.11.14a5.08,5.08,0,0,0,1.09-1.19Zm2.78.46a7.3,7.3,0,0,0-2-.43A5.16,5.16,0,0,0,75,12.09c.13.37.41.38.83.05S76.55,11.58,76.89,11.34ZM80,25.3l-.36-.42c-.09-.09-.08-.15,0-.19l.71-.28c.28-.13.23-.25-.13-.38a2.27,2.27,0,0,0-.42-.11c-.2,0-.28-.06-.24,0a.16.16,0,0,1-.09-.11.11.11,0,0,1,.06-.11,7.15,7.15,0,0,1,1.13-.44c.22-.07-.13-.27-1-.58-.15,0-.16-.11,0-.2a6.43,6.43,0,0,1,.58-.38,2.33,2.33,0,0,0,.54-.4c.09-.09-.29-.26-1.12-.52-.16-.05-.17-.12,0-.22a8.7,8.7,0,0,1,1.17-.53s-.4-.26-1.17-.81c-.11-.07-.11-.14,0-.2l1.33-.47q.15,0-1.41-.63c-.1,0-.12-.09,0-.19a.08.08,0,0,1,.07-.07,8.68,8.68,0,0,0,.75-.47c.43-.32.54-.47.32-.46a9.16,9.16,0,0,1-1.28,0c-.12,0-.16,0-.11-.17a3.91,3.91,0,0,0,.47-.94c.2-.55.1-.73-.29-.53a3.18,3.18,0,0,1-1,.31c-.12,0-.16,0-.11-.15.56-1.75.82-2.62.79-2.6a6.16,6.16,0,0,0-1,.5c-.48.3-.79.48-1,.57s-.18,0-.19-.11l0-.64a5,5,0,0,0,0-.89c-.09-.68-.4-.71-.94-.1a3.36,3.36,0,0,1-1.09.89s0,0,0,0l.48.17a3.73,3.73,0,0,1,2.91,2.39,7,7,0,0,1,1.14,3.83V26ZM77.13,11.42c0,.14,0,.38,0,.74a7.49,7.49,0,0,0,0,.76c.06.53.33.65.82.36a5.43,5.43,0,0,1,1.18-.55A6.35,6.35,0,0,0,77.13,11.42Zm2.34,1.72a2.16,2.16,0,0,1-.24.75c-.31.67-.3,1,0,1.11a8.85,8.85,0,0,0,1.25-.11A7,7,0,0,0,79.47,13.14ZM81,16.88a7.38,7.38,0,0,0-.28-1.46,1.76,1.76,0,0,1-.6.75c-.41.28-.46.48-.14.6A7.5,7.5,0,0,0,81,16.88Zm0,.81a4.14,4.14,0,0,1-1.14.47,5.53,5.53,0,0,1,1.14.4Zm0,4c-.55.55-.88.81-1,.79A2.27,2.27,0,0,1,81,23Zm0,1.65a4.4,4.4,0,0,0-.87.4q.41.11.87.27Zm-.31,1.1c-.45.2-.62.41-.52.61ZM81,19.13c-.84.26-1,.49-.37.7A1.31,1.31,0,0,1,81,20Zm0,1.43c-.49.2-.68.34-.58.42a.72.72,0,0,0,.27.11l.31.13Z"/><path class="cls-1" d="M94.84,9.91v3.18l-1.9,2.25L91.55,15l0,0h-.36v9.57l-1.91,2.25-1.7-.39H86.31V15H82.5V13.3l-.28-1.14,1.91-2.25h2.18V7L86,6.33,88,4.06h3.21V9.91ZM83.66,12.09a1.27,1.27,0,0,1-.3-.54l-.47.54Zm.11-.25a5.22,5.22,0,0,0,.32-1.15l-.56.65a.11.11,0,0,1,0,.07A1.72,1.72,0,0,0,83.77,11.84Zm.92.25c0,.06-.11-.36-.39-1.23a4.07,4.07,0,0,1-.38,1.23Zm1.62-1.71H84.38s.13.43.37,1.2c0-.73.18-1.13.41-1.19s.29.07.37.33A3.56,3.56,0,0,0,86.14,12a.09.09,0,0,1,0,.11h.15Zm-.39,1.71a7.82,7.82,0,0,1-.62-1.31c-.06-.13-.11-.11-.17.08a1.12,1.12,0,0,0-.08.3l0,.36a2.86,2.86,0,0,1-.1.57Zm.8-5.86h.81l0,0c-.09-.14-.2-.31-.31-.51Zm.62-.73q.19.31.21.3s0-.08.14-.28,0,.11-.1.71h.08a.1.1,0,0,0,0,0,1,1,0,0,1,.17-.33c0,.12-.09.25-.14.37h.91a2.83,2.83,0,0,1,0-.43,4.66,4.66,0,0,0,0-.5c0-.34-.17-.31-.39.08a3.36,3.36,0,0,0-.33.48c.13-.34.28-.79.45-1.33h-.17Zm1.27-1c.1.36.24.53.41.53s.31-.18.46-.53Zm1,.41a5.12,5.12,0,0,1-.68,1.29h.26v4a9.72,9.72,0,0,0,1.08-1.72,2.43,2.43,0,0,1-.84.11c-.1,0-.13-.05-.11-.15a5.63,5.63,0,0,1,1-2.17,10.68,10.68,0,0,1-.86,1.06.12.12,0,0,1-.13,0c-.06,0-.09,0-.08-.11C89.42,5.84,89.54,5.07,89.59,4.94Zm1.08,10h-1.5v4a7.14,7.14,0,0,0,1.16-.75c-.08-.45-.15-.56-.24-.33a.11.11,0,0,1-.11.06,3.92,3.92,0,0,1-.67-.05c-.16,0-.19-.07-.08-.2l.74-.8c.11-.23-.1-.34-.64-.34-.14,0-.17-.06-.1-.19s.24-.46.58-1.17c0-.06.08-.07.14,0a.11.11,0,0,1,.07.16,4.07,4.07,0,0,0-.35.82c0,.15.35.17,1,.07h0Zm-1.5-2.86H90A1.12,1.12,0,0,1,90,10.78a2,2,0,0,1,.21-.28.8.8,0,0,1-.31.11,2.33,2.33,0,0,1-.75,0Zm.64,13.27a2,2,0,0,1-.61-.55.11.11,0,0,1,0-.14,2.21,2.21,0,0,1,.86-.56c.11,0,.06-.16-.16-.34q-.57-.46-.48-.36c-.06-.07-.06-.12,0-.18a2.84,2.84,0,0,0,.53-.64c.11-.25,0-.38-.47-.39-.18,0-.21-.07-.09-.2a4,4,0,0,0,.64-.86q.09-.34-.69-.45a.11.11,0,0,1-.08-.1.12.12,0,0,1,0-.11,8.82,8.82,0,0,0,.74-.71c.32-.2.32-.35,0-.46l-.46-.09-.42-.06v7Zm.86-7.3a3.14,3.14,0,0,1-1.19,1,.86.86,0,0,1,1.19.25Zm0-13.53h-.89a4.3,4.3,0,0,1-.2,2.14,2.34,2.34,0,0,1,1-.83h.06Zm0,11.92a4.5,4.5,0,0,1-.5.5,3.05,3.05,0,0,0-.48.55c-.06.07,0,.11.08.13a.2.2,0,0,0,.21-.1c.12-.2.35-.17.69.08Zm0-8.09a6,6,0,0,1-.42.67,4.13,4.13,0,0,0-.45.77q-.37.81.81.39h.06Zm0,11.28c-.43.27-.68.44-.75.5-.27.22-.23.35.11.39a1.5,1.5,0,0,1,.64.19Zm0,1.34a1.7,1.7,0,0,1-.36.4,2.48,2.48,0,0,0-.4.4c-.08.11,0,.17.23.19.45.05.63.07.53.05Zm0-14.84A6.27,6.27,0,0,0,90,7.55c-.17.58,0,.77.63.58,0,0,.06,0,.09,0Zm0,18.2v-.21h0c-.57.06-.8.41-.71,1l0,0Zm0-1.86a1.69,1.69,0,0,1-.26.36,1.56,1.56,0,0,0-.24.33c-.1.23.06.48.5.75Zm0-11.15c.17-.49.29-.81.36-.95h-.33s0,0,0,0c-.54.34-.64.88-.31,1.61A2.91,2.91,0,0,0,90.69,11.33Zm.42-.45-.33.93a2.37,2.37,0,0,1-.15.28h.7A4,4,0,0,1,91.11,10.88Zm.91.75a2.7,2.7,0,0,1,.46-.63,3.52,3.52,0,0,0,.46-.62H91.28a8.47,8.47,0,0,1,.16.95,1.76,1.76,0,0,0,.19.76h.09A4.6,4.6,0,0,0,92,11.63Zm.79.46A5.14,5.14,0,0,0,93,10.77l-.7.84a5.36,5.36,0,0,1-.25.48Zm1.13,1.33a2.79,2.79,0,0,1-.83.06c-.13,0-.16-.08-.11-.18a19.84,19.84,0,0,0,1-2.41c-.68,1-1,1.46-1.06,1.49a.1.1,0,0,1-.09,0v2.33Zm-.74-3A5.78,5.78,0,0,1,93.08,12a2.78,2.78,0,0,0,.55-.83,2.06,2.06,0,0,1,.59-.81Zm1.18.31a27.27,27.27,0,0,1-1.08,2.54,3.41,3.41,0,0,0,.9-.1l.18-.21Z"/><path class="cls-2" d="M121.36,12l-6.77,12.55-2,2-.73-.14-1.86,0L103.47,14l0,0,2-2.08L108,10.52l4.92,9.26,3.44-6.39.36-.81,2-2.05Zm-16.64,1.3.75-.41c0-.1,0-.22,0-.34Zm1-1,0,.06c0,.27,0,.35.16.24,0,.05,0-.12.33-.52Zm.5.83s0-.22.08-.58,0-.3,0-.14a1.47,1.47,0,0,1-.39.47l4.45,8.39a6.46,6.46,0,0,1,.1-1.66s0,0,0,0v0a7.64,7.64,0,0,1,.27-1.81,2.05,2.05,0,0,1,.15-.42c.22-.29,0-.05-.62.7,0-.06,0,.28-.16,1,0,.16,0,.27,0,.32s-.07.29-.11.42-.07.1-.14.08a.11.11,0,0,1-.08-.14,24.71,24.71,0,0,0,.33-3c-.25.29-.36.41-.33.35a1.8,1.8,0,0,1-.91.59c-.1,0-.15,0-.12-.11a7.57,7.57,0,0,1,.57-1.75c.4-.93.32-1.15-.23-.67a2.62,2.62,0,0,0-.83,1.14c0,.06-.07.08-.14.06a.09.09,0,0,1-.08-.12,12,12,0,0,1,.41-1.41c0-.14.08-.42.16-.86s.08-.68,0-.62a9.64,9.64,0,0,1-1.39,1.17.12.12,0,0,1-.13,0,.11.11,0,0,1,0-.11,11.77,11.77,0,0,1,.66-1.81c.31-.7.24-.86-.22-.5a4,4,0,0,0-1,1.09.08.08,0,0,1-.12.05A.08.08,0,0,1,106.22,13.05Zm1.61-1.94-1.31.7a.07.07,0,0,1,0,0,1.38,1.38,0,0,1-.14.86c.16-.26.26-.42.3-.47a8.12,8.12,0,0,1,1.26-.87Zm.81,1.8a.12.12,0,0,1,.13,0l-.64-1.22c0-.08-.23.6-.72,2.05a2.85,2.85,0,0,0-.11.3c0-.06,0-.09.08-.1C107.56,13.79,108,13.45,108.64,12.91Zm.19.11a3.25,3.25,0,0,1-.16,1.42c0,.08-.07.23-.14.44s-.1.31-.14.42a4.78,4.78,0,0,1,1.16-.94Zm.92,1.73a3.47,3.47,0,0,1-.33,1,6,6,0,0,0-.4,1c-.12.4,0,.5.23.29a2.48,2.48,0,0,0,.31-.29,1.77,1.77,0,0,1,.22-.22,6.13,6.13,0,0,1,.24-1.3Zm.42.94c.07,0,.11,0,.11.09s0,.39,0,.85,0,.64,0,.85c.22-.42.48-.57.78-.43l-.78-1.49C110.18,15.64,110.17,15.68,110.17,15.69Zm.71,5.81a.15.15,0,0,1-.13,0,.09.09,0,0,1,0-.12,4.53,4.53,0,0,1,.33-.71q.27-.5.36-.69c.4-.88.42-1.2,0-1a2.39,2.39,0,0,0-.79.75c0,.18,0,.49-.07.92s0,.7-.06.92l.7,1.31,1.13-2.09c0-.37-.13-.41-.45-.14C111.3,21.19,111,21.46,110.88,21.5Zm.23-4.2a4.68,4.68,0,0,0-.38,1.78h0v0c.56-.36.85-.55.87-.58s.09-.09.16,0Zm1.56,2.95-.87-1.66a2.43,2.43,0,0,1-.35,1.79c-.3.55-.41.79-.34.71s.3-.28.42-.4a4.65,4.65,0,0,0,.42-.3l.43-.31c.1-.1.16-.07.18.06s0,.18,0,.28Zm3,.73c0,.28,0,.49,0,.65L116,21a3.59,3.59,0,0,0-.49-.07.1.1,0,0,1-.11-.11.1.1,0,0,1,.11-.11,4.62,4.62,0,0,1,.6.09v-1a.13.13,0,0,1,0-.06c-.08-.12,0-.19.09-.19a4,4,0,0,1,.4.08c0-.1,0-.28,0-.54s0-.42,0-.55l-4,7.39,1.47-1.5a1.26,1.26,0,0,0-.29-.05.1.1,0,0,1-.11-.11.1.1,0,0,1,.11-.11,1.4,1.4,0,0,1,.38.07c0-.32,0-.55,0-.71l0,0c0-.09,0-.14.06-.16l.41-.06V22.13a.09.09,0,0,1,.09-.1.11.11,0,0,1,.13-.09,2.81,2.81,0,0,0,.54,0c0-.2,0-.53,0-1,0-.06,0-.09.11-.09S115.64,20.92,115.64,21Zm-1,2.44-.27,0c0,.05,0,.19,0,.44Zm.67-1.25h-.44V23Zm1-1.81.3-.56-.3-.08Zm2.58-6.08s0,0,0,0l-2.17,4,0,0a3.11,3.11,0,0,0,.64-.08,4.68,4.68,0,0,0,0-.65c0-.08,0-.11.12-.1v-.08s-.08,0-.08-.07a.13.13,0,0,1,.08-.13h0l.5-.11h0c0-.74,0-1.08,0-1a.1.1,0,0,1,.11-.11.1.1,0,0,1,.11.11v.06a2.38,2.38,0,0,1,.37-.06v0a1.3,1.3,0,0,0-.07-.42.6.6,0,0,1,0-.42q.09-.22.54-.21a3.2,3.2,0,0,0-.25-.59Zm-2,4.19s0,.34,0,.94l.53-1Zm1.06-5.2c0,.08,0-.23.25-.94l.22-.86-1.35,1.37.88.47Zm-.35,4.15c.07,0,.1,0,.1.1v.32l.31-.56-.41.08ZM119,13.67a3.4,3.4,0,0,0,.75-.83,2.93,2.93,0,0,0,.48-.76,8.18,8.18,0,0,0-1,.67c-.07.06-.46.28-1.16.66l.86.45h0C118.84,13.77,118.85,13.7,119,13.67Zm-.36-2.4a.1.1,0,0,1,0,.11,14.5,14.5,0,0,1-.43,1.71,8.48,8.48,0,0,0,1.1-.67,5.67,5.67,0,0,1,.87-.58l-1.42-.76Zm-.31,4.79a4.6,4.6,0,0,0,0,.63l.36-.67v0Zm.53-.59a1.23,1.23,0,0,0,0,.2l.3-.53H119Q118.77,15.16,118.83,15.47Zm.26-1.53-.09.15a2.24,2.24,0,0,0,.61-.21l-.58,0,0,0Zm.07.34a4.93,4.93,0,0,1,.2.47l.37-.7A1.51,1.51,0,0,1,119.16,14.28Zm1.61-2.14-.3-.16a5.44,5.44,0,0,1-.66,1.1,6.23,6.23,0,0,1-.43.59l.54,0,0,0Z"/><path class="cls-2" d="M133.36,10.33l-.44,3.33h-.11l-1.65,2-.19.22-.19-.22a1.36,1.36,0,0,0-.17-.18,5.48,5.48,0,0,0-2.83.75,4,4,0,0,0-.39,1.52v6.5l-1.89,2.27-1.73-.27h-1v-5l-.47-8.43,1.88-2.25h3.26v1.05a8.33,8.33,0,0,1,4.84-1.39,6.86,6.86,0,0,1,.9.05Zm-9.55,2.59s-.08,0-.08-.08a2.61,2.61,0,0,0-.21-.76l-.71.84Zm-.15-1a.08.08,0,0,1,.07.07c.12.33.24.34.38,0,0-.1.1-.25.17-.47a4.53,4.53,0,0,1,.16-.47h-.1Zm1,.86a11,11,0,0,1-.11-1.14,3.9,3.9,0,0,0-.55,1.21.13.13,0,0,1-.11.08h1.77V13c.37-1.31.35-1.74,0-1.29a2.63,2.63,0,0,0-.38.58,3.91,3.91,0,0,1-.37.59.1.1,0,0,1-.13,0A.12.12,0,0,1,124.63,12.77Zm.07-1.69c0,.57.07.87.07.89.06.31.18.26.37-.16l.7-.73Zm2.24,2.05a.11.11,0,0,1-.14,0,.17.17,0,0,1,0-.13c.07-.45-.07-.5-.42-.14a9.34,9.34,0,0,1-.66.82h0v.53a7.88,7.88,0,0,1,4.78-1.62.24.24,0,0,1,0-.14,3.77,3.77,0,0,1,0-.39,2,2,0,0,0-.05-.39c-.05-.25-.18-.2-.37.15a3.49,3.49,0,0,1-.55.77c-.08.09-.15.08-.2-.05-.21-.53-.36-.76-.44-.69l-.16.29a2.12,2.12,0,0,1-.25.43.11.11,0,0,1-.12,0,1.38,1.38,0,0,1-.36-.19c-.17-.09-.26-.13-.27-.11A2.32,2.32,0,0,1,126.94,13.13Zm-1.27,6.28a4.12,4.12,0,0,0,0,.42v.53c.79-.36.91-.6.35-.72C125.81,19.6,125.7,19.52,125.67,19.41Zm0,2.07a2.4,2.4,0,0,1,.6-.28c.64-.17.44-.36-.6-.56Zm0,1.18c.69-.45,1-.68.89-.69-.49-.08-.79-.14-.89-.17Zm.53.75c.22-.09,0-.23-.53-.43v.66A3,3,0,0,1,126.16,23.41Zm-.53,1.32a8.09,8.09,0,0,1,.85-.56c-.16.08-.45,0-.85-.15Zm0,.88.32-.39-.17-.06a.37.37,0,0,0-.15-.08Zm.35-7.23a5.13,5.13,0,0,0-.25.79,1.07,1.07,0,0,1,.4-.26l.29-.11.3-.1C126.61,18.75,126.37,18.64,126,18.38Zm.93-7.3h-.78a9.84,9.84,0,0,1-.3,2.05c0-.2.39-.55,1-1.06l0,0Zm-.69,12.56c-.34.13-.36.23,0,.31l.4.07.27,0,0,0v-.72C126.82,23.4,126.59,23.5,126.22,23.64Zm.45.72c-.65.27-.84.49-.56.67Zm-.23-6.78s0,0,0,0a4.53,4.53,0,0,0-.33.53Q126.59,18.06,126.44,17.58Zm.15,2.7c-.37.14-.51.24-.4.3l.29.11.43.17v-.75A1,1,0,0,1,126.59,20.28Zm-.36,1.39a1.79,1.79,0,0,1,.68.22v-.67C126.33,21.5,126.11,21.65,126.23,21.67Zm.68.72c-.59.3-.81.46-.66.47a1.44,1.44,0,0,1,.66.25Zm0-4.33c-.25.1-.37.18-.35.25a1.09,1.09,0,0,0,.35.28Zm0-.42a4.42,4.42,0,0,1,.15-.83,6.37,6.37,0,0,0-.5.55A3.6,3.6,0,0,1,126.91,17.64Zm0,1.25c-.23.11-.35.22-.35.36s.13.22.35.3Zm.42-6.61q-.14.09,0,0l-.22.16C127.1,12.63,127.18,12.56,127.33,12.28Zm.45-.31q.43.39.78-.45A8.43,8.43,0,0,0,127.78,12Zm1.06-.58a4,4,0,0,1,.41.7c0,.08.32-.29.86-1.11A9.88,9.88,0,0,0,128.84,11.39Zm3.39-.66a8.92,8.92,0,0,0-1.9.21h0s.07.26.16.71.17.71.19.86C130.94,12.7,131.45,12.11,132.23,10.73Zm-1.89.22s0,0,0,0S130.36,11,130.34,11Zm1.18,2.13c0-.13.13-.29.23-.5s.19-.41.23-.52c.34-.78.43-1.05.27-.83,0,.07-.12.2-.23.41l-.24.39a1.49,1.49,0,0,1-.69.55,3,3,0,0,1,.49.05Zm-.22,1.64c.59-.71,1-1.15,1.11-1.31a8.56,8.56,0,0,1-.88.12h-.06Zm1.51-4-.31,0a2.53,2.53,0,0,1-.12,1c-.25.6-.38.87-.36.83-.13.47,0,.67.43.6h.05Z"/></g></g></svg>