<svg xmlns="http://www.w3.org/2000/svg" width="430.27" height="94.19" viewBox="0 0 430.27 94.19">
  <defs>
    <style>
      .cls-1 {
        fill: #e33237;
      }

      .cls-2 {
        fill: #1b9e77;
      }
    </style>
  </defs>
  <g id="Layer_2" data-name="Layer 2">
    <g id="Layer_1-2" data-name="Layer 1">
      <g>
        <path class="cls-1" d="M48.59,45.1a44.11,44.11,0,0,1-9.8,8,79.33,79.33,0,0,1,9.5,12.2q1.6,2.51,2.55,4t2.6,4.5a25.36,25.36,0,0,1,2.3,5.2c.43,1.5.82,3.13,1.15,4.9a10,10,0,0,1-.2,4.9,10.38,10.38,0,0,1-2.4,4.05q-1.8,1.91-5.3,1a12.34,12.34,0,0,1-1.7-.7,5.47,5.47,0,0,1-1.5-1.15c-.47-.5-.83-.9-1.1-1.2a8.1,8.1,0,0,1-1-1.65l-.75-1.5q-.15-.3-.75-1.8c-.4-1-.63-1.57-.7-1.7a82.2,82.2,0,0,0-5.6-11.1,68.42,68.42,0,0,0-7.5-9.8q-.7-.79-2.1-2.25c-.93-1-1.57-1.65-1.9-2l-2.5.6q-.6,15.1-2.8,22.5a4.69,4.69,0,0,1-3.3,3.6,6.11,6.11,0,0,1-4.9-.7,6.4,6.4,0,0,1-3.1-3.9,41.88,41.88,0,0,1-1.2-5.75,43.44,43.44,0,0,1-.3-6.95q.11-4,.15-5.9c0-1.26.22-3.6.55-7s.53-5.36.6-5.9q.2-2.3.5-7.55c.2-3.5.38-6.26.55-8.3s.48-4.5.95-7.4a57.06,57.06,0,0,1,1.8-7.85,5.51,5.51,0,0,1,.5-1.1,39,39,0,0,0-4.8,1.9,4.39,4.39,0,0,1-5.8-1.25A5,5,0,0,1,.79,12a16.06,16.06,0,0,1,4.8-5,25.43,25.43,0,0,1,7-3.35,52.88,52.88,0,0,1,7.3-1.75c2.3-.36,4.65-.65,7.05-.85Q46.29-.2,53.49,9.9a21.81,21.81,0,0,1,3.65,8.8,25,25,0,0,1-.1,9.45,35.45,35.45,0,0,1-3.15,9A39.33,39.33,0,0,1,48.59,45.1Zm-12.7-8.5a23.68,23.68,0,0,0,3.3-4,27.05,27.05,0,0,0,2.7-5,11.22,11.22,0,0,0,.85-5.4,6.92,6.92,0,0,0-2.15-4.55q-3.71-3.5-16-2.9a37.82,37.82,0,0,0-4.6.5,5.45,5.45,0,0,1,3.4,4.2,49.56,49.56,0,0,1,.6,8.1q0,4.5-.2,7.35T23,43.2Q31.39,40.8,35.89,36.6Z"/>
        <path class="cls-1" d="M103.39,27.3q2.51,10.9-2.1,22.7a48.36,48.36,0,0,1-5.8,11,18.91,18.91,0,0,1-8.3,6.75,18,18,0,0,1-10.1.9,20.79,20.79,0,0,1-9.2-4.3q-7.91-6.5-8.3-20.8a43.46,43.46,0,0,1,5.5-22.5,30.94,30.94,0,0,1,5.4-7,13.55,13.55,0,0,1,6.9-3.8A14.54,14.54,0,0,1,84,8.45,14.81,14.81,0,0,1,91.19,10a19.4,19.4,0,0,1,7.75,7A33.11,33.11,0,0,1,103.39,27.3ZM87.59,45.1a25.84,25.84,0,0,0,1.8-11.9,24.2,24.2,0,0,0-1.3-5.5,6.92,6.92,0,0,0-2.7-3.8,4.88,4.88,0,0,0-3.6-.3,27.15,27.15,0,0,0-6.9,16,14.38,14.38,0,0,0,0,4.2q.3,2.81.8,5.5a7.59,7.59,0,0,0,2.2,4.3,3.8,3.8,0,0,0,4.2.7Q84.39,53.51,87.59,45.1Z"/>
        <path class="cls-1" d="M145.09,7.4a17.69,17.69,0,0,1,10.4,9.4,26.65,26.65,0,0,1,2.2,14.9q-1.6,13.71-16.4,27.7-7,6.7-13.2,9.2a5.57,5.57,0,0,1-6.2,1.3,10.57,10.57,0,0,1-8-3.5,4.81,4.81,0,0,1-1.3-4,6.31,6.31,0,0,1,2-3.8,9,9,0,0,1,1.7-1.3V53.5q-.11-6,0-13.4c.07-.8.1-1.83.1-3.1V33.6c0-1,0-2.1.1-3.3s.13-2.38.2-3.55.17-2.25.3-3.25l-1.8.4a6,6,0,0,1-5.2-.7,7,7,0,0,1-2.9-3.95,8.36,8.36,0,0,1,.2-5.1,6.77,6.77,0,0,1,3.4-4,45.12,45.12,0,0,1,17-4.6A43.83,43.83,0,0,1,145.09,7.4ZM143.59,33a25.28,25.28,0,0,0,.65-5.85,6.41,6.41,0,0,0-1.85-4.5,8.28,8.28,0,0,0-5.1-2.25,43.12,43.12,0,0,0-5.8,0q.19,4.2.15,6.35c0,1.44-.13,3.55-.3,6.35s-.25,4.87-.25,6.2q-.1,4.5-.1,10.1c.13-.13.23-.2.3-.2a69.17,69.17,0,0,0,7.85-7.9A22.88,22.88,0,0,0,143.59,33Z"/>
        <path class="cls-1" d="M203.79,50.1a4.57,4.57,0,0,1,4.5,1.2,6.11,6.11,0,0,1,1.8,4.5,11.22,11.22,0,0,1-2.85,7.55A23.08,23.08,0,0,1,200.39,69a28.33,28.33,0,0,1-7.9,2.9A23.77,23.77,0,0,1,181,71.5a21.61,21.61,0,0,1-9.75-5.6q-5.4-5.49-6.4-15.2h-.3a4.73,4.73,0,0,1-4.5-3.65,5.06,5.06,0,0,1,1.6-5.65,25.29,25.29,0,0,1,3.4-2.6q.3-2.59,1.5-10.2,1-6.6,1.1-6.9a5.38,5.38,0,0,1-1.85-3.9,4.85,4.85,0,0,1,1.95-3.9,28.27,28.27,0,0,1,3-1.8,6.21,6.21,0,0,1,3.05-2.35,6.63,6.63,0,0,1,3.65-.25,76.6,76.6,0,0,1,7.9-1.8c.26-.06.66-.13,1.2-.2q12.3-2.4,18.3-1.9a6.48,6.48,0,0,1,4.65,2.1,6.14,6.14,0,0,1,1.6,4.25,8.33,8.33,0,0,1-1.55,4.55,7,7,0,0,1-4.2,2.9,71.32,71.32,0,0,1-9.95,1.65l-7.55.85c-.67.14-1.65.32-2.95.55s-2.25.39-2.85.45c-.07.94-.47,4.5-1.2,10.7,2.4-.4,4.41-.68,6.05-.85a22.53,22.53,0,0,1,5.75.3,11.46,11.46,0,0,1,5.4,2.25,5.44,5.44,0,0,1,2.1,4,5.17,5.17,0,0,1-1.8,4,11.41,11.41,0,0,1-3.6,2.35,19.93,19.93,0,0,1-3.9,1.3c-1.14.24-2.72.5-4.75.8s-3.39.52-4,.65l-2.3.5a17.28,17.28,0,0,0,.7,3.6q1.09,3.41,3.3,4.55a6,6,0,0,0,4.9.25A33.2,33.2,0,0,0,194,55q2.59-1.39,5.45-3A17,17,0,0,1,203.79,50.1Z"/>
        <path class="cls-1" d="M262.39,12a19,19,0,0,1-.2,6.65,76.64,76.64,0,0,1-2.15,8.1q-1.46,4.56-2,6.55-1.2,5.31-3.6,19.4a24.37,24.37,0,0,0-.45,2.7q-.25,1.91-.45,3c-.14.74-.35,1.69-.65,2.85a11.45,11.45,0,0,1-1.05,2.8,23,23,0,0,1-1.45,2.2A5.54,5.54,0,0,1,248.29,68a12.46,12.46,0,0,1-2.9.9,8.12,8.12,0,0,1-3.3-.25,9.4,9.4,0,0,1-2.55-1.15,6.88,6.88,0,0,1-1.95-2.1,19.08,19.08,0,0,1-1.4-2.5,20.51,20.51,0,0,1-1.05-3c-.37-1.3-.64-2.28-.8-3s-.35-1.63-.55-2.9q-1.9-9.49-3.8-17.1c-.14.87-.32,2.12-.55,3.75s-.35,2.52-.35,2.65q-.21,1.41-.9,10.05a67.36,67.36,0,0,1-2,12.95,4.63,4.63,0,0,1-2.8,3,6,6,0,0,1-4.45.2,4.65,4.65,0,0,1-3.05-2.75A26.2,26.2,0,0,1,214,60.1a51.69,51.69,0,0,1-.6-7,56.33,56.33,0,0,1,.45-7.55c.33-2.86.63-5.2.9-7s.66-4.06,1.2-6.8l.75-3.75c.1-.5.35-1.68.75-3.55a24.67,24.67,0,0,1,1.15-4.1c.36-.86.83-2,1.4-3.4a14.08,14.08,0,0,1,2-3.55,15.38,15.38,0,0,1,2.55-2.55,9.07,9.07,0,0,1,5.7-2.2,8.88,8.88,0,0,1,5.8,1.9,10.52,10.52,0,0,1,1.8,1.9,22.72,22.72,0,0,1,1.35,2.1,14.1,14.1,0,0,1,1,2.45c.3,1,.53,1.79.7,2.45s.36,1.55.6,2.65a17.8,17.8,0,0,0,.65,2.45q.5,2,1.5,5.5.8-4.39,1.2-6.15c.26-1.16.75-2.93,1.45-5.3a29.14,29.14,0,0,1,2.4-5.95A22.15,22.15,0,0,1,252,8.3a5.71,5.71,0,0,1,4-1.55,7,7,0,0,1,4.15,1.55A5.52,5.52,0,0,1,262.39,12Z"/>
        <path class="cls-1" d="M298.89,4a6.65,6.65,0,0,1,5,3.1,7.56,7.56,0,0,1,1.25,6,5.25,5.25,0,0,1-3.95,4.15,65,65,0,0,1-9,2.1,38.62,38.62,0,0,1,.05,5.35c-.1,2.37-.19,4.17-.25,5.4s-.2,3-.4,5.35-.34,4.1-.4,5.3q-.3,3.7-1,13.6a3.42,3.42,0,0,0-.1,1c-.14,1.87-.29,3.29-.45,4.25a14.17,14.17,0,0,1-1.15,3.4,10.75,10.75,0,0,1-2.7,3.55,5.79,5.79,0,0,1-4.35,1.3,5.59,5.59,0,0,1-4.05-2,8.11,8.11,0,0,1-1.05-1.55c-.3-.56-.57-1-.8-1.4a4,4,0,0,1-.5-1.6c-.1-.7-.19-1.2-.25-1.5a7.26,7.26,0,0,1-.05-1.7c0-.83.05-1.35.05-1.55s0-.81.1-1.85a8,8,0,0,1,.2-1.75q.69-9.9,1-13.5c.06-1.06.2-2.93.4-5.6s.4-5,.6-6.95.43-3.81.7-5.55q-6.81.81-11.2-.9a5.11,5.11,0,0,1-3.45-4.15A5,5,0,0,1,265,11.2c.53-.46,1.05-.88,1.55-1.25a10.58,10.58,0,0,1,1.7-1q.94-.45,1.65-.75a19.45,19.45,0,0,1,1.85-.65l1.7-.5c.36-.1,1-.23,1.95-.4s1.53-.28,1.8-.35.93-.18,2-.35,1.7-.25,1.9-.25l2.45-.4,2.65-.45c.53-.1,1.35-.21,2.45-.35l2.65-.3,2.45-.2c1-.06,1.86-.1,2.7-.1S298.09,3.94,298.89,4Z"/>
        <path class="cls-2" d="M360.52,3.6A6.41,6.41,0,0,1,364.17.45a6,6,0,0,1,4.8.1,4.32,4.32,0,0,1,2.45,4c.06,1,.1,2.07.1,3.2s0,2.15,0,3.05-.14,2-.3,3.25-.29,2.27-.35,3-.24,1.82-.5,3.25-.45,2.45-.55,3.05-.32,1.69-.65,3.25-.54,2.59-.6,3.05q-2.81,14.7-4.7,23.3-.4,1.6-1.1,5.45t-1.3,6.5c-.4,1.77-.94,3.9-1.6,6.4a37.67,37.67,0,0,1-2.3,6.45,47.42,47.42,0,0,1-3,5.35,15,15,0,0,1-4.25,4.3,15.42,15.42,0,0,1-5.6,2.25,11.85,11.85,0,0,1-8-.95A15.64,15.64,0,0,1,331,84a31,31,0,0,1-3.85-8,72.72,72.72,0,0,1-2.45-8.15c-.44-2-.95-4.66-1.55-8a5,5,0,0,1-.2-1.2,195.76,195.76,0,0,1-3.1-22.9q-.21-1.59-.45-4.5c-.17-1.93-.3-3.55-.4-4.85s-.2-2.78-.3-4.45a39.23,39.23,0,0,1,0-4.85c.1-1.56.25-3.08.45-4.55a5.86,5.86,0,0,1,3.15-4.5,6,6,0,0,1,5.35-.25A5.7,5.7,0,0,1,331,12.1q1.2,5.31,2.1,11.8t1.7,13.4q.8,6.9,1.7,11.8,2,10.71,3.4,15.9a41.94,41.94,0,0,0,2.4,7.5,5.13,5.13,0,0,0,.5,1q1.1-1.89,1.2-2.1c.4-1,.86-2.36,1.4-4.1s1.16-4.5,2.1-8.5q1.8-7.59,4-18.3.5-2.4,2-11.4t2.95-14.8A48.67,48.67,0,0,1,360.52,3.6Z"/>
        <path class="cls-2" d="M421.32,45.1a44.11,44.11,0,0,1-9.8,8A80,80,0,0,1,421,65.3q1.59,2.51,2.55,4t2.6,4.5a25.92,25.92,0,0,1,2.3,5.2q.64,2.25,1.15,4.9a10.15,10.15,0,0,1-.2,4.9A10.38,10.38,0,0,1,427,92.9q-1.8,1.91-5.3,1a12.34,12.34,0,0,1-1.7-.7,5.19,5.19,0,0,1-1.5-1.15c-.47-.5-.84-.9-1.1-1.2a8.1,8.1,0,0,1-1-1.65l-.75-1.5q-.15-.3-.75-1.8c-.4-1-.64-1.57-.7-1.7a83.39,83.39,0,0,0-5.6-11.1,69.92,69.92,0,0,0-7.5-9.8q-.71-.79-2.1-2.25c-.94-1-1.57-1.65-1.9-2l-2.5.6q-.6,15.1-2.8,22.5a4.72,4.72,0,0,1-3.3,3.6,6.11,6.11,0,0,1-4.9-.7,6.37,6.37,0,0,1-3.1-3.9,39.1,39.1,0,0,1-1.2-5.75,43.44,43.44,0,0,1-.3-6.95q.09-4,.15-5.9c0-1.26.21-3.6.55-7s.53-5.36.6-5.9q.19-2.3.5-7.55c.2-3.5.38-6.26.55-8.3s.48-4.5.95-7.4a54.28,54.28,0,0,1,1.8-7.85,5.51,5.51,0,0,1,.5-1.1,39,39,0,0,0-4.8,1.9q-3.51,1.61-5.8-1.25a5,5,0,0,1-.5-6.05,16.06,16.06,0,0,1,4.8-5,25.29,25.29,0,0,1,6.95-3.35,52.54,52.54,0,0,1,7.3-1.75c2.3-.36,4.65-.65,7.05-.85Q419-.2,426.22,9.9a22,22,0,0,1,3.65,8.8,25.22,25.22,0,0,1-.1,9.45,36.23,36.23,0,0,1-3.15,9A39.75,39.75,0,0,1,421.32,45.1Zm-12.7-8.5a23.68,23.68,0,0,0,3.3-4,28.3,28.3,0,0,0,2.7-5,11.34,11.34,0,0,0,.85-5.4,7,7,0,0,0-2.15-4.55q-3.7-3.5-16-2.9a37.6,37.6,0,0,0-4.6.5,5.47,5.47,0,0,1,3.4,4.2,49.56,49.56,0,0,1,.6,8.1q0,4.5-.2,7.35c-.14,1.9-.4,4.65-.8,8.25Q404.12,40.8,408.62,36.6Z"/>
      </g>
    </g>
  </g>
</svg>
